<svg viewBox="0 0 18 20.1663" fill="none" xmlns="http://www.w3.org/2000/svg" xmlns:xlink="http://www.w3.org/1999/xlink" x="0" y="0"><path id="Vector" fill-rule="evenodd" clip-rule="evenodd" d="M9,0c2.387,0 4.676,0.948 6.364,2.636c1.688,1.688 2.636,3.977 2.636,6.364c0,3.074 -1.676,5.59 -3.442,7.395c-0.882,0.892 -1.845,1.701 -2.876,2.416l-0.426,0.29l-0.2,0.133l-0.377,0.24l-0.336,0.205l-0.416,0.242c-0.282,0.161 -0.602,0.245 -0.927,0.245c-0.325,0 -0.645,-0.084 -0.927,-0.245l-0.416,-0.242l-0.52,-0.32l-0.192,-0.125l-0.41,-0.273c-1.112,-0.753 -2.148,-1.612 -3.093,-2.566c-1.766,-1.806 -3.442,-4.321 -3.442,-7.395c0,-2.387 0.948,-4.676 2.636,-6.364c1.688,-1.688 3.977,-2.636 6.364,-2.636zM9,2c-1.857,0 -3.637,0.737 -4.95,2.05c-1.313,1.313 -2.05,3.093 -2.05,4.95c0,2.322 1.272,4.36 2.871,5.996c0.688,0.696 1.431,1.335 2.222,1.91l0.458,0.326c0.148,0.103 0.29,0.199 0.427,0.288l0.39,0.25l0.343,0.209l0.289,0.169l0.455,-0.269l0.367,-0.23c0.195,-0.124 0.405,-0.263 0.627,-0.417l0.458,-0.326c0.791,-0.575 1.534,-1.214 2.222,-1.91c1.599,-1.635 2.871,-3.674 2.871,-5.996c0,-1.857 -0.737,-3.637 -2.05,-4.95c-1.313,-1.313 -3.093,-2.05 -4.95,-2.05zM9,5c1.061,0 2.078,0.421 2.828,1.172c0.751,0.75 1.172,1.767 1.172,2.828c0,1.061 -0.421,2.078 -1.172,2.828c-0.75,0.751 -1.767,1.172 -2.828,1.172c-1.061,0 -2.078,-0.421 -2.828,-1.172c-0.751,-0.75 -1.172,-1.767 -1.172,-2.828c0,-1.061 0.421,-2.078 1.172,-2.828c0.75,-0.751 1.767,-1.172 2.828,-1.172zM9,7c-0.53,0 -1.039,0.211 -1.414,0.586c-0.375,0.375 -0.586,0.884 -0.586,1.414c0,0.53 0.211,1.039 0.586,1.414c0.375,0.375 0.884,0.586 1.414,0.586c0.53,0 1.039,-0.211 1.414,-0.586c0.375,-0.375 0.586,-0.884 0.586,-1.414c0,-0.53 -0.211,-1.039 -0.586,-1.414c-0.375,-0.375 -0.884,-0.586 -1.414,-0.586z" fill="currentColor"/></svg>