<svg viewBox="0 0 13.7173 13.1273" fill="none" xmlns="http://www.w3.org/2000/svg" xmlns:xlink="http://www.w3.org/1999/xlink" x="0" y="0"><path id="Vector" d="M6.1389,0.4139c0.073,-0.126 0.178,-0.23 0.305,-0.303c0.126,-0.073 0.269,-0.111 0.415,-0.111c0.146,0 0.289,0.038 0.415,0.111c0.127,0.073 0.232,0.177 0.305,0.303l1.863,3.199l3.619,0.784c0.142,0.031 0.274,0.098 0.382,0.196c0.108,0.098 0.189,0.222 0.234,0.361c0.045,0.138 0.053,0.286 0.023,0.429c-0.03,0.142 -0.097,0.274 -0.194,0.383l-2.467,2.761l0.373,3.683c0.015,0.145 -0.009,0.291 -0.068,0.424c-0.06,0.133 -0.153,0.249 -0.271,0.334c-0.118,0.086 -0.256,0.139 -0.401,0.155c-0.145,0.015 -0.292,-0.008 -0.425,-0.066l-3.388,-1.494l-3.388,1.494c-0.133,0.058 -0.28,0.081 -0.425,0.066c-0.145,-0.016 -0.283,-0.069 -0.401,-0.155c-0.118,-0.085 -0.211,-0.201 -0.271,-0.334c-0.059,-0.133 -0.083,-0.279 -0.068,-0.424l0.373,-3.683l-2.467,-2.76c-0.097,-0.109 -0.164,-0.241 -0.194,-0.384c-0.03,-0.143 -0.022,-0.291 0.023,-0.429c0.045,-0.139 0.125,-0.263 0.234,-0.361c0.108,-0.098 0.24,-0.166 0.382,-0.196l3.619,-0.784z" fill="currentColor"/></svg>