<svg viewBox="0 0 20 20" fill="none" xmlns="http://www.w3.org/2000/svg" xmlns:xlink="http://www.w3.org/1999/xlink" x="0" y="0"><path id="Vector_4" d="M10,0c5.523,0 10,4.477 10,10c0,5.523 -4.477,10 -10,10c-5.523,0 -10,-4.477 -10,-10c0,-5.523 4.477,-10 10,-10zM10,2c-2.122,0 -4.157,0.843 -5.657,2.343c-1.5,1.5 -2.343,3.535 -2.343,5.657c0,2.122 0.843,4.157 2.343,5.657c1.5,1.5 3.535,2.343 5.657,2.343c2.122,0 4.157,-0.843 5.657,-2.343c1.5,-1.5 2.343,-3.535 2.343,-5.657c0,-2.122 -0.843,-4.157 -2.343,-5.657c-1.5,-1.5 -3.535,-2.343 -5.657,-2.343zM10,4c0.245,0 0.481,0.09 0.664,0.253c0.183,0.162 0.3,0.387 0.329,0.63l0.007,0.117v4.586l2.707,2.707c0.179,0.18 0.283,0.421 0.291,0.675c0.008,0.254 -0.081,0.502 -0.249,0.692c-0.168,0.191 -0.403,0.31 -0.655,0.334c-0.253,0.024 -0.506,-0.049 -0.707,-0.204l-0.094,-0.083l-3,-3c-0.155,-0.156 -0.255,-0.358 -0.284,-0.576l-0.009,-0.131v-5c0,-0.265 0.105,-0.52 0.293,-0.707c0.187,-0.188 0.442,-0.293 0.707,-0.293z" fill="currentColor"/></svg>