<svg viewBox="0 0 19.9653 19.9694" fill="none" xmlns="http://www.w3.org/2000/svg" xmlns:xlink="http://www.w3.org/1999/xlink" x="0" y="0"><path id="Vector_2" d="M4.9918,0.2795c1.263,0.921 2.219,2.215 3.033,3.404l0.638,0.938c0.198,0.29 0.289,0.639 0.256,0.989c-0.032,0.349 -0.186,0.676 -0.434,0.924l-1.356,1.356l0.143,0.304c0.35,0.709 0.954,1.73 1.863,2.64c0.628,0.618 1.335,1.15 2.104,1.58l0.367,0.197l0.327,0.162l0.146,0.067l1.355,-1.356c0.249,-0.249 0.577,-0.402 0.928,-0.433c0.351,-0.032 0.701,0.061 0.99,0.262l1.014,0.703c1.152,0.81 2.355,1.733 3.29,2.931c0.162,0.208 0.264,0.455 0.298,0.717c0.033,0.261 -0.005,0.526 -0.109,0.768c-0.837,1.953 -2.955,3.616 -5.158,3.534l-0.3,-0.016l-0.233,-0.02l-0.258,-0.03l-0.281,-0.038l-0.305,-0.051l-0.326,-0.064l-0.346,-0.077l-0.366,-0.094l-0.385,-0.11l-0.402,-0.13c-1.846,-0.626 -4.189,-1.856 -6.593,-4.26c-2.403,-2.403 -3.633,-4.746 -4.259,-6.592l-0.13,-0.402l-0.11,-0.385l-0.094,-0.366l-0.078,-0.346c-0.022,-0.108 -0.043,-0.217 -0.063,-0.326l-0.05,-0.305l-0.04,-0.281l-0.029,-0.258l-0.02,-0.233l-0.016,-0.3c-0.081,-2.196 1.6,-4.329 3.544,-5.162c0.234,-0.101 0.49,-0.14 0.744,-0.112c0.253,0.028 0.495,0.121 0.701,0.271zM4.0648,2.0875c-1.072,0.56 -2.11,1.84 -2.063,3.121l0.02,0.328l0.022,0.205l0.029,0.23l0.04,0.253l0.051,0.277l0.065,0.298l0.08,0.32l0.096,0.339l0.114,0.358c0.042,0.122 0.086,0.247 0.134,0.375l0.154,0.392l0.176,0.407c0.628,1.382 1.652,3 3.325,4.672c1.672,1.672 3.29,2.697 4.672,3.325l0.407,0.176l0.392,0.154c0.128,0.048 0.253,0.092 0.375,0.134l0.358,0.114l0.34,0.096l0.319,0.08l0.298,0.065l0.277,0.051l0.254,0.04l0.23,0.03l0.204,0.02l0.328,0.02c1.264,0.047 2.554,-0.985 3.112,-2.043c-0.712,-0.835 -1.596,-1.52 -2.571,-2.21l-0.748,-0.521l-0.19,0.199l-0.406,0.443l-0.215,0.226c-0.586,0.597 -1.27,1.104 -2.09,0.773l-0.226,-0.095l-0.276,-0.124l-0.154,-0.073l-0.338,-0.169l-0.371,-0.2c-0.939,-0.523 -1.802,-1.17 -2.567,-1.925c-0.755,-0.765 -1.402,-1.628 -1.925,-2.567l-0.2,-0.37l-0.17,-0.339l-0.196,-0.43l-0.096,-0.228c-0.311,-0.769 0.117,-1.418 0.664,-1.98l0.224,-0.22l0.557,-0.513l0.2,-0.19l-0.473,-0.693c-0.703,-1.02 -1.39,-1.94 -2.243,-2.632zM13.1278,3.8745l0.116,0.013c0.728,0.128 1.397,0.484 1.91,1.016c0.513,0.531 0.845,1.212 0.948,1.944c0.037,0.253 -0.025,0.511 -0.173,0.72c-0.147,0.209 -0.369,0.353 -0.62,0.404c-0.251,0.05 -0.511,0.002 -0.728,-0.134c-0.217,-0.136 -0.373,-0.349 -0.437,-0.597l-0.023,-0.115c-0.04,-0.287 -0.163,-0.556 -0.353,-0.775c-0.189,-0.219 -0.439,-0.378 -0.717,-0.458l-0.155,-0.035c-0.251,-0.045 -0.476,-0.183 -0.628,-0.388c-0.152,-0.205 -0.22,-0.46 -0.191,-0.713c0.03,-0.253 0.155,-0.486 0.351,-0.65c0.195,-0.164 0.445,-0.247 0.7,-0.232zM13.1348,0.8345c1.591,0 3.117,0.632 4.243,1.757c1.125,1.126 1.757,2.652 1.757,4.243c0,0.255 -0.098,0.5 -0.273,0.685c-0.175,0.186 -0.414,0.297 -0.668,0.312c-0.255,0.015 -0.505,-0.068 -0.701,-0.231c-0.195,-0.164 -0.321,-0.396 -0.351,-0.649l-0.007,-0.117c0,-1.016 -0.386,-1.993 -1.08,-2.735c-0.694,-0.741 -1.645,-1.19 -2.658,-1.256l-0.262,-0.009c-0.265,0 -0.52,-0.105 -0.707,-0.293c-0.188,-0.187 -0.293,-0.442 -0.293,-0.707c0,-0.265 0.105,-0.52 0.293,-0.707c0.187,-0.188 0.442,-0.293 0.707,-0.293z" fill="currentColor"/></svg>