<svg viewBox="0 0 22 16" fill="none" xmlns="http://www.w3.org/2000/svg" xmlns:xlink="http://www.w3.org/1999/xlink" x="0" y="0"><path id="Vector_3" d="M20,0c0.505,0 0.991,0.19 1.361,0.533c0.37,0.344 0.596,0.814 0.634,1.317l0.005,0.15v12c0,0.505 -0.19,0.991 -0.533,1.361c-0.344,0.37 -0.814,0.596 -1.317,0.634l-0.15,0.005h-16c-0.505,0 -0.991,-0.19 -1.361,-0.533c-0.37,-0.344 -0.596,-0.814 -0.634,-1.317l-0.005,-0.15v-1h2v1h16v-10.586l-6.94,6.94c-0.262,0.262 -0.613,0.418 -0.984,0.437c-0.37,0.019 -0.735,-0.1 -1.023,-0.334l-0.114,-0.103l-6.939,-6.94v0.586h-2v-2c0,-0.505 0.19,-0.991 0.533,-1.361c0.344,-0.37 0.814,-0.596 1.317,-0.634l0.15,-0.005zM6,9c0.265,0 0.52,0.105 0.707,0.293c0.188,0.187 0.293,0.442 0.293,0.707c0,0.265 -0.105,0.52 -0.293,0.707c-0.187,0.188 -0.442,0.293 -0.707,0.293h-5c-0.265,0 -0.52,-0.105 -0.707,-0.293c-0.188,-0.187 -0.293,-0.442 -0.293,-0.707c0,-0.265 0.105,-0.52 0.293,-0.707c0.187,-0.188 0.442,-0.293 0.707,-0.293zM18.586,2h-13.172l6.586,6.586zM5,6c0.255,0 0.5,0.098 0.685,0.273c0.186,0.175 0.297,0.414 0.312,0.668c0.015,0.255 -0.068,0.505 -0.231,0.701c-0.164,0.195 -0.396,0.321 -0.649,0.351l-0.117,0.007h-3c-0.255,0 -0.5,-0.098 -0.685,-0.273c-0.186,-0.175 -0.297,-0.414 -0.312,-0.668c-0.015,-0.255 0.068,-0.505 0.231,-0.701c0.164,-0.195 0.396,-0.321 0.649,-0.351l0.117,-0.007z" fill="currentColor"/></svg>