<svg viewBox="0 0 22.19 19.1589" fill="none" xmlns="http://www.w3.org/2000/svg" xmlns:xlink="http://www.w3.org/1999/xlink" x="0" y="0"><path id="“" d="M22.19,0.1886l-0.56,3.99c-1.12,-0.093 -2.03,0.094 -2.73,0.56c-0.7,0.444 -1.19,1.097 -1.47,1.96c-0.257,0.84 -0.303,1.82 -0.14,2.94h4.9v9.52h-9.52v-9.52c0,-3.36 0.782,-5.903 2.345,-7.63c1.563,-1.75 3.955,-2.356 7.175,-1.82zM9.52,0.1886l-0.56,3.99c-1.12,-0.093 -2.03,0.094 -2.73,0.56c-0.7,0.444 -1.19,1.097 -1.47,1.96c-0.257,0.84 -0.303,1.82 -0.14,2.94h4.9v9.52h-9.52v-9.52c0,-3.36 0.782,-5.903 2.345,-7.63c1.563,-1.75 3.955,-2.356 7.175,-1.82z" fill="currentColor"/></svg>