<svg viewBox="0 0 17.5 17.5" fill="none" xmlns="http://www.w3.org/2000/svg" x="0" y="0"><path id="Vector" d="M6.859,0.0003c-0.465,0 -0.91,0.1844 -1.238,0.51263c-0.328,0.32823 -0.513,0.77341 -0.513,1.2376v3.25043h-3.25c-0.464,0 -0.909,0.18439 -1.238,0.51263c-0.328,0.32823 -0.512,0.77341 -0.512,1.2376v4.00051c0,0.9661 0.784,1.7502 1.75,1.7502h3.25v3.2505c0,0.9661 0.784,1.7502 1.751,1.7502h4c0.464,0 0.909,-0.1844 1.238,-0.5126c0.328,-0.3283 0.512,-0.7734 0.512,-1.2376v-3.2505h3.251c0.464,0 0.909,-0.1844 1.237,-0.5126c0.329,-0.3282 0.513,-0.7734 0.513,-1.2376v-4.00051c0,-0.46419 -0.184,-0.90937 -0.513,-1.2376c-0.328,-0.32824 -0.773,-0.51263 -1.237,-0.51263h-3.251v-3.25043c0,-0.46419 -0.184,-0.90937 -0.512,-1.2376c-0.329,-0.32823 -0.774,-0.51263 -1.238,-0.51263z" fill="currentColor"/></svg>